<svg width="69" height="54" viewBox="0 0 69 54" fill="none" xmlns="http://www.w3.org/2000/svg">
<path d="M62.506 7.46967H34.6673L29.1224 0.765001C28.9569 0.562699 28.7089 0.449246 28.4503 0.457447H6.04897C2.69583 0.491278 -0.00386047 3.26695 4.14398e-06 6.67687V47.684C-0.000163883 51.0912 2.69851 53.8629 6.04897 53.8966H62.506C65.8564 53.8629 68.5551 51.0912 68.5549 47.684V13.6823C68.5551 10.2751 65.8564 7.5035 62.506 7.46967Z" fill="#503AE7"/>
<path d="M29.928 31.9535H23.256L22.152 35.1455H18.624L24.648 18.3695H28.56L34.584 35.1455H31.032L29.928 31.9535ZM29.016 29.2655L26.592 22.2575L24.168 29.2655H29.016ZM35.9717 28.4495C35.9717 27.1055 36.2357 25.9135 36.7637 24.8735C37.3077 23.8335 38.0357 23.0335 38.9477 22.4735C39.8757 21.9135 40.9077 21.6335 42.0437 21.6335C43.0357 21.6335 43.8997 21.8335 44.6357 22.2335C45.3877 22.6335 45.9877 23.1375 46.4357 23.7455V21.8495H49.8197V35.1455H46.4357V33.2015C46.0037 33.8255 45.4037 34.3455 44.6357 34.7615C43.8837 35.1615 43.0117 35.3615 42.0197 35.3615C40.8997 35.3615 39.8757 35.0735 38.9477 34.4975C38.0357 33.9215 37.3077 33.1135 36.7637 32.0735C36.2357 31.0175 35.9717 29.8095 35.9717 28.4495ZM46.4357 28.4975C46.4357 27.6815 46.2757 26.9855 45.9557 26.4095C45.6357 25.8175 45.2037 25.3695 44.6597 25.0655C44.1157 24.7455 43.5317 24.5855 42.9077 24.5855C42.2837 24.5855 41.7077 24.7375 41.1797 25.0415C40.6517 25.3455 40.2197 25.7935 39.8837 26.3855C39.5637 26.9615 39.4037 27.6495 39.4037 28.4495C39.4037 29.2495 39.5637 29.9535 39.8837 30.5615C40.2197 31.1535 40.6517 31.6095 41.1797 31.9295C41.7237 32.2495 42.2997 32.4095 42.9077 32.4095C43.5317 32.4095 44.1157 32.2575 44.6597 31.9535C45.2037 31.6335 45.6357 31.1855 45.9557 30.6095C46.2757 30.0175 46.4357 29.3135 46.4357 28.4975Z" fill="white"/>
</svg>
